PathFileType	4	(X/Y/Z)	..\data\2014004\dynamic\2014004_C4_02.trc
DataRate	CameraRate	NumFrames	NumMarkers	Units	OrigDataRate	OrigDataStartFrame	OrigNumFrames
100.000000	100.000000	4	52	mm	100.000000	0	172
Frame#	Time	L_IAS			L_IPS			R_IPS			R_IAS			L_FTC			L_FLE			L_FME			L_FAX			L_TTC			L_FAL			L_TAM			L_FCC			L_FM1			L_FM2			L_FM5			R_FTC			R_FLE			R_FME			R_FAX			R_TTC			R_FAL			R_TAM			R_FCC			R_FM1			R_FM2			R_FM5			CV7			TV10			SXS			SJN			L_SIA			L_SRS			L_SAA			L_SAE			L_HLE			L_HME			L_UOA			L_RSP			L_UHE			L_HM2			L_HM5			R_SIA			R_SRS			R_SAA			R_SAE			R_HLE			R_HME			R_UOA			R_RSP			R_UHE			R_HM2			R_HM5			
		X1	Y1	Z1	X2	Y2	Z2	X3	Y3	Z3	X4	Y4	Z4	X5	Y5	Z5	X6	Y6	Z6	X7	Y7	Z7	X8	Y8	Z8	X9	Y9	Z9	X10	Y10	Z10	X11	Y11	Z11	X12	Y12	Z12	X13	Y13	Z13	X14	Y14	Z14	X15	Y15	Z15	X16	Y16	Z16	X17	Y17	Z17	X18	Y18	Z18	X19	Y19	Z19	X20	Y20	Z20	X21	Y21	Z21	X22	Y22	Z22	X23	Y23	Z23	X24	Y24	Z24	X25	Y25	Z25	X26	Y26	Z26	X27	Y27	Z27	X28	Y28	Z28	X29	Y29	Z29	X30	Y30	Z30	X31	Y31	Z31	X32	Y32	Z32	X33	Y33	Z33	X34	Y34	Z34	X35	Y35	Z35	X36	Y36	Z36	X37	Y37	Z37	X38	Y38	Z38	X39	Y39	Z39	X40	Y40	Z40	X41	Y41	Z41	X42	Y42	Z42	X43	Y43	Z43	X44	Y44	Z44	X45	Y45	Z45	X46	Y46	Z46	X47	Y47	Z47	X48	Y48	Z48	X49	Y49	Z49	X50	Y50	Z50	X51	Y51	Z51	X52	Y52	Z52	

1	0	-1109.4765625	936.708435058594	165.2572174072264	-1310.48974609375	963.1625976562502	232.1381683349608	-1308.372436523438	964.7015380859377	323.4331665039061	-1108.9775390625	934.146423339844	396.2376098632812	-1189.622802734375	877.044860839844	91.42617034912097	-1043.697509765625	482.7455444335939	122.4032363891601	-1031.205200195313	485.2586975097657	249.8935394287109	-1038.004638671875	422.2661132812501	114.7706756591796	-965.799743652344	426.5639953613282	178.9801940917968	-915.177917480469	71.7029495239258	138.9277343749999	-897.7561035156252	105.2527236938477	230.6983032226562	-947.0689697265627	23.79143524169922	198.3784484863281	-755.6546630859376	101.9958953857422	220.2630310058593	-764.8036499023439	103.8304290771485	163.5937042236328	-781.5665283203127	72.6402053833008	121.6176376342773	-1180.421142578125	861.4075317382815	458.3222961425781	-1321.542724609375	458.5125122070314	401.6717834472656	-1286.805053710938	462.238739013672	276.1646118164061	-1337.38330078125	423.511444091797	402.1355285644531	-1275.164184570313	395.0799255371095	354.7405395507811	-1455.586547851563	77.40809631347658	347.886016845703	-1439.78564453125	105.5818634033203	253.6167449951171	-1514.602294921875	51.57848358154298	288.5345764160155	-1309.760620117188	25.85119247436524	270.1691589355468	-1315.17578125	39.93257904052735	327.6139831542968	-1349.557250976563	24.65426635742188	379.531768798828	-1232.671752929688	1452.251831054688	278.2510681152343	-1323.02392578125	1228.3349609375	277.8454589843749	-1083.54833984375	1167.98974609375	260.8555908203124	-1119.732055664063	1356.792114257813	270.0250549316406	-1332.677490234375	1262.931762695313	174.3383941650389	-1291.010131835938	1400.7451171875	201.9879455566405	-1258.208862304688	1408.105712890625	120.1462478637694	-1193.510009765625	1408.21484375	83.66318511962878	-1303.860717773438	1109.07373046875	14.21054267883285	-1324.409301757813	1108.81201171875	98.67732238769518	-1344.583862304688	1100.498901367188	51.02414321899399	-1253.92626953125	839.6287841796877	39.36367034912094	-1322.0439453125	862.3006591796877	-0.8719711303712558	-1253.637451171875	753.7745971679689	30.32533264160142	-1352.434326171875	776.5416259765627	5.134131431579426	-1315.1171875	1241.240600585938	402.1403808593749	-1281.9033203125	1386.039794921875	364.0635681152343	-1224.33984375	1395.286499023438	443.0158996582031	-1160.636474609375	1395.822265625	454.9667358398437	-1211.846923828125	1076.67724609375	554.6406860351562	-1236.231323242188	1059.380249023438	467.1235046386718	-1252.298950195313	1046.8740234375	519.6483154296875	-1009.042236328125	898.247009277344	512.2722778320312	-1068.9560546875	864.7515869140627	551.7913818359375	-947.9986572265628	832.3113403320315	526.94873046875	-1043.058471679688	785.984313964844	539.2529296875	
2	0.01	-1097.117065429688	934.887878417969	164.742462158203	-1298.377319335938	961.1695556640627	231.2328643798827	-1296.462280273438	962.813415527344	322.3724060058593	-1097.179321289063	932.4087524414065	395.9841918945312	-1177.162963867188	875.1838378906252	90.81003570556628	-1031.562133789063	481.1867065429689	122.9689636230468	-1019.517272949219	484.3853149414064	250.3431243896484	-1025.272338867188	420.6920166015626	115.3854980468749	-953.3376464843752	425.8800659179689	180.0042877197265	-899.4809570312502	71.33071136474611	140.3653869628905	-882.4707031250002	105.3218154907227	232.1644592285156	-931.3518676757815	23.35790443420411	199.6455078124999	-740.4558715820314	103.1278076171875	222.4944152832031	-749.1854248046876	104.4255752563477	165.7360534667968	-765.6354980468751	72.98120117187501	123.9654541015624	-1169.297607421875	859.9758300781252	457.8434448242187	-1313.864990234375	458.5599670410157	401.7987365722656	-1278.594604492188	461.5300292968751	276.304229736328	-1330.101684570313	423.6377258300782	402.3588562011718	-1268.485107421875	394.0873107910157	354.8939208984374	-1454.676025390625	79.3748016357422	348.6686706542968	-1438.604370117188	107.5247116088867	254.3251800537108	-1514.31201171875	54.58258438110353	289.4846801757811	-1309.53369140625	25.96950721740723	270.363555908203	-1314.638305664063	39.96609497070313	327.9414672851561	-1349.202392578125	24.44771194458009	379.8116455078124	-1220.64404296875	1450.455688476563	276.5308532714843	-1311.509521484375	1226.873779296875	277.0759277343749	-1071.723266601563	1165.989624023438	259.7053527832031	-1107.565551757813	1354.967651367188	268.3891906738281	-1321.028198242188	1260.905639648438	173.6902008056639	-1279.192504882813	1398.789428710938	200.7058715820311	-1246.605346679688	1405.755737304688	118.6234893798827	-1181.799438476563	1405.709228515625	82.01988220214831	-1292.915161132813	1106.528198242188	14.03603076934799	-1313.036254882813	1106.491088867188	98.58806610107409	-1333.41015625	1098.393432617188	51.11110305786118	-1246.183715820313	836.5859985351565	38.31089401245103	-1314.305786132813	860.2493896484377	-1.384217023849649	-1247.002563476563	750.7087402343751	29.1714706420897	-1345.479858398438	774.905212402344	4.450259208679035	-1303.008178710938	1239.786987304688	401.1501159667968	-1269.785888671875	1384.524291992188	362.6171874999999	-1212.261962890625	1393.9267578125	441.5239257812499	-1148.352294921875	1394.510131835938	453.3351440429688	-1199.510864257813	1075.74267578125	554.25048828125	-1223.675048828125	1057.966186523438	466.7438964843749	-1239.9326171875	1045.640869140625	519.3505859375	-996.1052246093753	897.9241333007815	512.5408325195312	-1055.902465820313	864.333190917969	552.1444091796875	-934.8530273437503	832.2762451171877	527.4888916015625	-1029.725219726563	785.6111450195315	539.8492431640625	
3	0.02	-1084.564453125	933.3098754882815	164.1681976318358	-1286.070434570313	959.2864379882815	230.2334136962889	-1284.357177734375	960.9658813476565	321.1591491699218	-1085.216796875	930.7764282226565	395.7233581542969	-1164.413452148438	873.5630493164065	90.08270263671862	-1019.044494628906	479.895965576172	123.4852371215819	-1007.226379394531	483.8934020996095	250.647720336914	-1012.501831054688	419.2717285156251	115.9586563110351	-940.8381347656252	425.0383605957032	180.956085205078	-886.3372802734377	70.50012969970705	141.8860931396484	-869.5557250976565	104.6760787963867	233.7457275390624	-918.597595214844	22.85765838623047	200.9515991210937	-727.7088623046876	102.5173416137696	224.7827453613281	-735.9997558593751	103.3955993652344	167.882095336914	-752.4378662109376	71.8343963623047	126.3609008789062	-1158.016723632813	858.5999755859377	457.2613830566406	-1305.5947265625	458.6179504394532	401.9864501953124	-1269.762939453125	460.8044738769532	276.5135803222655	-1322.312866210938	423.8005676269532	402.6301879882812	-1261.292114257813	393.1059570312501	355.1233520507811	-1453.663818359375	81.61394500732423	349.580108642578	-1437.241455078125	109.7019653320313	255.1724395751952	-1513.922607421875	57.99364852905275	290.5285034179686	-1309.326782226563	26.02619743347169	270.563262939453	-1314.109497070313	39.93658828735352	328.292999267578	-1348.889038085938	24.16001892089844	380.0656738281249	-1208.520385742188	1448.796508789063	274.6811218261718	-1299.807373046875	1225.516723632813	276.2145385742186	-1059.624145507813	1164.17724609375	258.4831848144531	-1095.281127929688	1353.28173828125	266.6466674804687	-1309.232177734375	1258.960083007813	172.8986358642577	-1267.273193359375	1396.97265625	199.3330841064452	-1234.887939453125	1403.50439453125	116.95987701416	-1169.98583984375	1403.289794921875	80.24762725830065	-1281.637084960938	1103.939819335938	13.84777355194077	-1301.345947265625	1104.144897460938	98.45648193359362	-1321.89599609375	1096.238525390625	51.16289901733384	-1237.958740234375	833.5974731445315	37.2332267761229	-1306.08349609375	858.214294433594	-1.898035168647926	-1239.8662109375	747.7055664062501	27.97762680053696	-1338.030639648438	773.2952880859377	3.772674322128133	-1290.81982421875	1238.476928710938	400.0439758300781	-1257.572875976563	1383.1484375	361.0457458496093	-1200.089599609375	1392.7041015625	439.9154357910156	-1135.9736328125	1393.327392578125	451.5944213867188	-1187.248046875	1074.96044921875	553.733154296875	-1211.24365234375	1056.754638671875	466.2615356445312	-1227.676391601563	1044.6279296875	518.9306640625	-983.5675048828128	897.3537597656252	512.7722778320312	-1043.32666015625	863.7941894531252	552.455078125	-922.2481689453128	831.8802490234377	528.013671875	-1017.001831054688	785.074157714844	540.4404296875	
4	0.03	-1071.817016601563	932.0444335937502	163.5259246826171	-1273.55615234375	957.5672607421877	229.1603546142577	-1272.042724609375	959.2098388671877	319.8323974609374	-1073.057495117188	929.2910156250002	395.4316101074219	-1151.3720703125	872.2490844726565	89.2465896606444	-1006.195129394531	478.8966369628907	123.9339065551757	-994.429626464844	483.7577514648439	250.8082885742187	-999.7106933593752	418.0408630371095	116.4635848999022	-928.3193359375002	424.0794067382814	181.8187561035155	-875.5344848632815	69.24941253662111	143.419448852539	-858.8177490234377	103.3482055664063	235.3690795898437	-908.5908813476565	22.32066345214844	202.2210693359374	-717.2025756835939	100.1931762695313	227.0850677490234	-725.0391235351564	100.7926635742188	169.9863586425781	-741.7499389648439	69.25061035156251	128.7273864746093	-1146.5322265625	857.3001708984377	456.5702209472656	-1296.669555664063	458.6861572265626	402.2561645507812	-1260.243041992188	460.0462951660157	276.8281249999999	-1313.976684570313	424.0163574218751	402.9740295410156	-1253.529052734375	392.1417846679689	355.4815673828124	-1452.511474609375	84.18125152587892	350.6246032714843	-1435.610961914063	112.147201538086	256.1805725097655	-1513.3525390625	61.90847778320314	291.6452026367186	-1309.190795898438	26.02067184448243	270.7655944824218	-1313.64453125	39.82331848144532	328.6500854492186	-1348.67578125	23.79436874389649	380.260528564453	-1196.297241210938	1447.317993164063	272.6999511718749	-1287.887939453125	1224.288452148438	275.2539672851561	-1047.25390625	1162.599731445313	257.1846618652343	-1082.878173828125	1351.778564453125	264.7956848144531	-1297.2841796875	1257.132690429688	171.9569091796874	-1255.247924804688	1395.336303710938	197.8656768798827	-1223.054931640625	1401.391845703125	115.1539764404296	-1158.07421875	1400.996337890625	78.34169769287097	-1270.022094726563	1101.34521484375	13.63734245300278	-1289.34423828125	1101.811401367188	98.26631927490222	-1310.044799804688	1094.069091796875	51.16120147705063	-1229.225463867188	830.6979980468752	36.14806365966783	-1297.332641601563	856.2229614257815	-2.416627883911292	-1232.184936523438	744.8011474609376	26.76102638244615	-1330.055297851563	771.7351684570315	3.104558229446249	-1278.548217773438	1237.347778320313	398.8163146972656	-1245.262573242188	1381.953857421875	359.3492126464843	-1187.807006835938	1391.660400390625	438.1885070800781	-1123.499145507813	1392.31494140625	449.7445373535156	-1175.067993164063	1074.374145507813	553.0867309570312	-1198.951293945313	1055.791625976563	465.6742858886718	-1215.538818359375	1043.885986328125	518.385498046875	-971.4504394531253	896.5635375976565	512.9578857421875	-1031.250366210938	863.1660156250002	552.7210083007812	-910.2056884765628	831.1501464843752	528.5143432617188	-1004.914489746094	784.4000244140627	541.0252075195312	
